<?xml version="1.0" standalone="no"?>
<!DOCTYPE svg PUBLIC "-//W3C//DTD SVG 20010904//EN"
 "http://www.w3.org/TR/2001/REC-SVG-20010904/DTD/svg10.dtd">
<svg version="1.0" xmlns="http://www.w3.org/2000/svg"
 width="225.000000pt" height="225.000000pt" viewBox="0 0 225.000000 225.000000"
 preserveAspectRatio="xMidYMid meet">

<g transform="translate(0.000000,225.000000) scale(0.100000,-0.100000)"
fill="#000000" stroke="none">
<path d="M0 1125 l0 -1125 1125 0 1125 0 0 1125 0 1125 -1125 0 -1125 0 0
-1125z m1088 833 c7 -7 12 -19 11 -27 0 -11 -4 -8 -11 7 -6 12 -16 22 -23 22
-7 0 -17 -10 -23 -22 -7 -15 -11 -18 -11 -7 -1 17 18 39 34 39 6 0 16 -5 23
-12z m63 -115 c8 -10 -8 1 -35 24 -38 32 -52 39 -62 30 -17 -15 -34 -29 -59
-46 -11 -7 0 5 24 27 l45 41 36 -29 c20 -16 43 -37 51 -47z m-331 47 c0 -5 -4
-10 -10 -10 -5 0 -10 5 -10 10 0 6 5 10 10 10 6 0 10 -4 10 -10z m510 0 c0 -5
-4 -10 -10 -10 -5 0 -10 5 -10 10 0 6 5 10 10 10 6 0 10 -4 10 -10z m-65 -38
c0 -18 -20 -15 -23 4 -3 10 1 15 10 12 7 -3 13 -10 13 -16z m-367 -4 c-3 -7
-11 -13 -18 -13 -7 0 -15 6 -17 13 -3 7 4 12 17 12 13 0 20 -5 18 -12z m203
-9 c16 -11 34 -30 40 -42 8 -17 5 -16 -13 6 -13 15 -27 27 -32 27 -5 0 0 -12
9 -27 l18 -28 -27 24 c-26 25 -27 25 -56 7 -17 -9 -30 -14 -30 -10 0 4 -7 -1
-16 -12 -14 -18 -14 -18 -3 6 12 26 57 69 72 70 5 0 22 -9 38 -21z m-491 -45
c0 -8 -7 -14 -15 -14 -15 0 -21 21 -9 33 10 9 24 -2 24 -19z m946 15 c10 -17
-13 -36 -27 -22 -12 12 -4 33 11 33 5 0 12 -5 16 -11z m-606 -24 c11 -14 10
-14 -15 -5 -15 6 -29 9 -30 8 -2 -2 -12 -19 -24 -38 -12 -19 -21 -28 -21 -19
0 24 39 69 60 69 9 0 23 -7 30 -15z m306 -10 c9 -13 14 -30 12 -37 -3 -7 -12
1 -22 20 -19 37 -16 35 -53 22 -26 -9 -27 -9 -9 5 29 22 53 18 72 -10z m-416
-42 c13 -14 13 -14 -7 -4 -50 26 -86 10 -103 -46 l-8 -28 -1 26 c-1 15 8 38
19 52 16 20 26 24 53 20 17 -2 39 -11 47 -20z m549 14 c6 -8 13 -29 16 -48 l6
-34 -17 38 c-19 42 -44 48 -97 20 -30 -15 -31 -15 -18 0 12 15 57 34 87 36 6
1 17 -5 23 -12z m-439 -48 c0 -6 -4 -7 -10 -4 -5 3 -10 11 -10 16 0 6 5 7 10
4 6 -3 10 -11 10 -16z m-122 -28 c3 -8 0 -11 -7 -7 -14 9 -14 1 0 -27 10 -21
10 -21 -6 -2 -8 11 -13 25 -10 33 3 10 -1 11 -16 7 -15 -5 -19 -4 -14 5 9 15
47 9 53 -9z m529 -6 c1 -16 1 -16 -3 -2 -3 9 -13 17 -22 17 -13 0 -14 -2 -3
-9 9 -6 10 -11 2 -15 -6 -4 -11 -2 -11 4 0 6 -5 8 -12 4 -9 -5 -8 -2 1 10 18
22 45 17 48 -9z m291 -20 c-3 -3 -9 2 -12 12 -6 14 -5 15 5 6 7 -7 10 -15 7
-18z m-526 -122 c22 -46 42 -98 45 -117 8 -48 -13 -101 -54 -141 -32 -31 -34
-35 -15 -35 12 0 22 -4 22 -9 0 -4 -11 -6 -25 -3 -31 6 -33 -15 -2 -28 12 -5
60 -14 106 -20 47 -5 87 -14 90 -19 6 -10 87 1 99 13 3 4 0 11 -8 16 -15 9
-123 30 -158 30 -12 0 -22 5 -22 11 0 5 5 7 11 4 6 -4 16 0 22 8 7 9 30 18 52
21 l40 6 -35 -11 c-27 -8 -31 -13 -19 -19 15 -9 185 13 197 25 3 3 -28 6 -69
7 l-74 2 68 3 c37 2 67 6 67 9 0 3 -8 14 -19 25 -24 26 -33 69 -22 106 11 37
53 123 60 123 8 -1 50 -91 61 -130 10 -35 -5 -99 -26 -107 -32 -12 -10 -22 54
-26 l67 -3 -74 -2 c-66 -2 -91 -12 -43 -18 112 -14 174 -16 168 -6 -4 7 -17
12 -29 13 -12 0 -16 3 -9 6 7 3 27 -1 44 -8 27 -11 29 -14 13 -25 -26 -19
-159 -29 -194 -14 -23 9 -37 9 -64 -1 -31 -11 -33 -14 -20 -27 14 -14 13 -17
-3 -29 -10 -7 -26 -13 -36 -13 -10 0 -18 -5 -18 -11 0 -5 -4 -8 -9 -4 -5 3
-12 2 -15 -3 -2 -4 -30 -8 -60 -8 -31 1 -56 -2 -56 -5 0 -14 -111 13 -142 33
-20 13 -26 13 -54 -4 -17 -10 -46 -20 -63 -21 -17 -1 -31 -5 -31 -9 0 -9 -116
-1 -137 10 -10 5 -26 8 -36 6 -11 -1 -16 0 -13 4 4 3 -8 11 -26 16 -18 6 -33
17 -33 25 0 22 21 24 42 3 21 -22 81 -36 97 -23 14 11 99 28 156 30 64 3 101
39 43 42 l-28 2 27 4 27 4 -33 30 c-69 60 -73 135 -13 263 21 43 40 90 44 104
l6 26 10 -24 c6 -14 28 -62 49 -107z m368 105 c11 -12 20 -26 20 -32 0 -6 -7
-1 -15 11 -9 13 -23 27 -33 32 -9 6 -12 11 -5 11 7 0 21 -10 33 -22z m-1062
-20 c-6 -18 -28 -21 -28 -4 0 9 7 16 16 16 9 0 14 -5 12 -12z m1302 -3 c0 -8
-4 -15 -9 -15 -13 0 -22 16 -14 24 11 11 23 6 23 -9z m-1530 -9 c0 -3 -4 -8
-10 -11 -5 -3 -10 -1 -10 4 0 6 5 11 10 11 6 0 10 -2 10 -4z m1760 0 c0 -3 -4
-8 -10 -11 -5 -3 -10 -1 -10 4 0 6 5 11 10 11 6 0 10 -2 10 -4z m-1424 -13
c-22 -4 -26 -7 -15 -14 11 -7 9 -9 -8 -9 -27 0 -35 -12 -36 -56 -1 -39 -11
-26 -21 28 -6 33 -4 37 21 46 15 6 42 10 58 10 l30 -1 -29 -4z m1113 -4 c26
-9 30 -15 25 -33 -10 -33 -24 -43 -24 -18 0 14 -9 26 -22 32 -15 6 -18 9 -8
11 8 1 -1 5 -20 9 -29 6 -31 8 -9 9 14 0 40 -4 58 -10z m-955 -122 c33 -84 33
-117 0 -156 l-25 -30 73 -4 73 -3 -79 -2 c-81 -2 -95 -10 -34 -18 18 -3 57 -9
86 -14 29 -5 62 -6 75 -1 21 8 20 9 -13 19 -20 6 -27 11 -15 11 35 1 65 -11
65 -26 0 -9 6 -13 15 -9 8 3 15 2 15 -3 0 -5 -27 -12 -61 -15 -33 -4 -73 -12
-87 -17 -20 -8 -37 -5 -73 11 -43 18 -53 19 -93 8 -35 -9 -61 -9 -112 -1 -95
17 -115 42 -37 48 21 1 27 0 13 -2 -14 -3 -29 -9 -35 -15 -12 -13 151 -3 187
11 18 8 8 10 -47 12 l-70 3 63 3 c34 2 62 6 62 8 0 3 -9 14 -20 25 -29 29 -26
97 8 175 15 35 30 61 33 57 3 -4 18 -37 33 -75z m-354 53 c6 -11 7 -20 2 -20
-6 0 -12 9 -15 20 -3 11 -3 20 -1 20 2 0 8 -9 14 -20z m-255 -20 c3 -5 -1 -10
-10 -10 -9 0 -13 5 -10 10 3 6 8 10 10 10 2 0 7 -4 10 -10z m225 -11 c0 -5 -7
-9 -15 -9 -15 0 -20 12 -9 23 8 8 24 -1 24 -14z m1540 0 c0 -5 -7 -9 -15 -9
-15 0 -20 12 -9 23 8 8 24 -1 24 -14z m214 0 c-3 -5 -10 -7 -15 -3 -5 3 -7 10
-3 15 3 5 10 7 15 3 5 -3 7 -10 3 -15z m-1764 -59 c0 -5 -7 -10 -15 -10 -8 0
-15 5 -15 10 0 6 7 10 15 10 8 0 15 -4 15 -10z m163 -7 c-28 -14 -33 -22 -33
-52 0 -27 -3 -32 -10 -21 -18 28 -11 59 18 74 15 8 34 15 42 15 8 0 0 -8 -17
-16z m1244 -5 c15 -12 17 -44 3 -53 -6 -4 -10 5 -10 20 0 20 -8 30 -32 41
l-33 15 30 -6 c16 -4 36 -11 42 -17z m153 12 c0 -5 -7 -10 -15 -10 -8 0 -15 5
-15 10 0 6 7 10 15 10 8 0 15 -4 15 -10z m-1585 -70 c3 -5 -1 -10 -10 -10 -9
0 -13 5 -10 10 3 6 8 10 10 10 2 0 7 -4 10 -10z m1600 0 c3 -5 1 -10 -4 -10
-6 0 -11 5 -11 10 0 6 2 10 4 10 3 0 8 -4 11 -10z m-1525 -20 c0 -5 -4 -10
-10 -10 -5 0 -10 5 -10 10 0 6 5 10 10 10 6 0 10 -4 10 -10z m1460 6 c0 -3 -4
-8 -10 -11 -5 -3 -10 -1 -10 4 0 6 5 11 10 11 6 0 10 -2 10 -4z m-1539 -66
c23 -13 25 -43 4 -60 -24 -20 -88 -23 -110 -6 -19 16 -19 16 7 5 33 -14 94 -4
102 18 8 20 -13 46 -31 39 -8 -3 -11 -1 -8 4 8 13 12 12 36 0z m1607 -1 c-24
-13 -23 -46 1 -59 29 -15 63 -12 91 7 l25 17 -19 -22 c-29 -33 -118 -24 -132
13 -7 17 22 55 40 55 6 0 3 -5 -6 -11z m-1538 -4 c0 -2 -10 -9 -22 -15 -22
-11 -22 -10 -4 4 21 17 26 19 26 11z m1640 -19 c0 -3 -4 -8 -10 -11 -5 -3 -10
-1 -10 4 0 6 5 11 10 11 6 0 10 -2 10 -4z m-1000 -26 c0 -5 -2 -10 -4 -10 -3
0 -8 5 -11 10 -3 6 -1 10 4 10 6 0 11 -4 11 -10z m210 -2 c0 -4 -9 -8 -20 -8
-11 0 -20 4 -20 9 0 6 9 9 20 8 11 -1 20 -5 20 -9z m805 -28 c-10 -11 -23 -20
-29 -20 -6 1 0 10 13 20 30 26 39 26 16 0z m-1829 -17 c-7 -7 -26 7 -26 19 0
6 6 6 15 -2 9 -7 13 -15 11 -17z m1339 7 c3 -5 12 -7 20 -3 8 3 15 3 15 0 0
-13 -28 -13 -45 -1 -10 8 -14 14 -8 14 7 0 14 -4 18 -10z m-1368 -20 c14 -11
22 -20 18 -20 -4 0 -18 9 -32 20 -14 11 -22 20 -18 20 4 0 18 -9 32 -20z
m1463 6 c0 -3 -4 -8 -10 -11 -5 -3 -10 -1 -10 4 0 6 5 11 10 11 6 0 10 -2 10
-4z m410 -11 c-7 -8 -17 -15 -23 -15 -6 0 -2 7 9 15 25 19 30 19 14 0z m-1656
-31 c3 -8 2 -12 -4 -9 -6 3 -10 10 -10 16 0 14 7 11 14 -7z m226 6 c0 -5 -5
-10 -11 -10 -5 0 -7 5 -4 10 3 6 8 10 11 10 2 0 4 -4 4 -10z m1201 -13 c-10
-9 -11 -8 -5 6 3 10 9 15 12 12 3 -3 0 -11 -7 -18z m-276 3 c-6 -10 9 -15 30
-10 6 1 7 -2 3 -6 -12 -11 -57 -14 -63 -4 -3 5 3 13 12 19 23 13 26 13 18 1z
m-1245 -15 c0 -8 -4 -15 -9 -15 -13 0 -22 16 -14 24 11 11 23 6 23 -9z m836
-17 l29 -33 -32 29 c-18 17 -33 25 -33 19 0 -6 -12 -19 -27 -28 l-28 -18 29
32 c17 17 30 31 31 31 1 0 14 -15 31 -32z m804 17 c0 -8 -4 -15 -9 -15 -13 0
-22 16 -14 24 11 11 23 6 23 -9z m30 -25 c0 -5 -2 -10 -4 -10 -3 0 -8 5 -11
10 -3 6 -1 10 4 10 6 0 11 -4 11 -10z m-1045 -10 c-3 -5 -12 -10 -18 -10 -7 0
-6 4 3 10 19 12 23 12 15 0z m385 -4 c-7 -7 -13 -7 -20 0 -6 6 -3 10 10 10 13
0 16 -4 10 -10z m-280 0 c0 -2 -8 -10 -17 -17 -16 -13 -17 -12 -4 4 13 16 21
21 21 13z m190 -40 c0 -5 -7 -1 -15 10 -8 10 -14 24 -14 29 0 6 6 1 14 -9 8
-11 15 -24 15 -30z m-284 12 c3 -4 -1 -5 -10 -4 -8 1 -18 5 -22 8 -3 4 1 5 10
4 8 -1 18 -5 22 -8z m401 6 c-3 -3 -12 -4 -19 -1 -8 3 -5 6 6 6 11 1 17 -2 13
-5z m-1149 -23 c3 -8 -1 -12 -9 -9 -7 2 -15 10 -17 17 -3 8 1 12 9 9 7 -2 15
-10 17 -17z m792 4 c0 -2 -6 -5 -13 -8 -8 -3 -14 1 -14 8 0 7 6 11 14 8 7 -3
13 -6 13 -8z m140 -2 c0 -7 -4 -13 -10 -13 -5 0 -10 5 -10 10 0 6 -6 5 -14 -2
-8 -7 -14 -15 -14 -18 0 -3 -1 -8 -2 -12 -1 -5 -3 -13 -4 -19 0 -7 -12 -16
-26 -20 -24 -9 -24 -8 -6 6 11 8 14 15 8 15 -7 0 -12 5 -12 10 0 6 10 10 23
10 17 0 19 2 8 9 -8 5 -21 7 -30 4 -9 -2 -5 2 9 10 14 9 28 13 32 11 3 -2 9
-1 12 4 8 14 36 10 36 -5z m169 14 c-2 -1 -12 -9 -22 -16 -15 -12 -17 -12 -11
3 3 9 13 16 22 16 8 0 13 -1 11 -3z m771 -6 c0 -10 -30 -24 -37 -17 -3 3 -2 9
2 15 8 13 35 15 35 2z m-1524 -9 c6 -4 16 -22 22 -40 6 -17 24 -44 39 -58 l28
-25 -30 6 c-18 3 -49 26 -77 56 -45 48 -46 50 -25 59 28 11 30 11 43 2z m450
-29 c-8 -15 -15 -22 -16 -14 0 9 -8 11 -27 7 -23 -5 -25 -4 -10 5 10 6 24 8
32 5 8 -3 17 3 20 15 4 11 9 18 12 16 2 -3 -2 -18 -11 -34z m164 26 c0 -5 5
-7 10 -4 6 3 10 1 10 -4 0 -6 -9 -11 -20 -11 -11 0 -20 7 -20 15 0 8 5 15 10
15 6 0 10 -5 10 -11z m586 -10 c3 -5 0 -9 -6 -9 -6 0 -20 -16 -32 -35 -28 -48
-108 -88 -108 -54 0 5 5 7 10 4 6 -3 10 -2 10 2 0 5 10 13 23 18 13 6 21 17
19 28 -2 9 2 17 8 17 6 0 8 5 4 12 -4 6 1 17 10 23 17 13 52 9 62 -6z m-389 5
c-3 -3 -12 -4 -19 -1 -8 3 -5 6 6 6 11 1 17 -2 13 -5z m-427 -14 c-8 -5 -22
-10 -30 -10 -13 0 -13 1 0 10 8 5 22 10 30 10 13 0 13 -1 0 -10z m400 0 c8 -5
11 -10 5 -10 -5 0 -17 5 -25 10 -8 5 -10 10 -5 10 6 0 17 -5 25 -10z m-192
-23 c4 -21 -25 -34 -40 -19 -8 8 -8 16 2 27 16 19 34 15 38 -8z m-688 -8 c-23
-6 -22 -7 12 -14 26 -5 35 -11 31 -21 -3 -8 3 -22 13 -30 16 -13 17 -15 2 -10
-10 3 -20 0 -24 -6 -4 -6 -3 -8 3 -5 6 4 16 -6 22 -23 5 -17 6 -28 1 -25 -4 3
-10 0 -12 -7 -3 -8 -17 0 -39 20 -19 18 -45 32 -58 32 -20 0 -22 3 -13 12 7 7
12 18 12 26 0 12 -3 12 -17 1 -10 -7 -1 6 21 28 26 28 44 39 55 35 13 -5 11
-7 -9 -13z m743 15 c3 -4 -1 -13 -9 -22 -13 -12 -13 -17 -2 -24 10 -8 10 -9
-1 -6 -17 5 -24 38 -8 39 7 0 3 4 -8 9 -20 8 -20 9 1 9 11 1 23 -2 27 -5z
m-506 -61 c3 4 12 2 19 -4 10 -8 9 -17 -7 -42 -10 -18 -19 -36 -19 -40 0 -12
81 -47 108 -47 13 0 20 -4 17 -10 -8 -13 -62 -1 -111 25 l-41 22 24 34 c23 33
23 34 3 41 -22 8 -40 45 -32 67 3 8 10 1 19 -19 7 -18 16 -30 20 -27z m1144
20 c18 -21 27 -32 19 -25 -7 6 -22 12 -33 12 -15 0 -14 -4 10 -25 l28 -24 -24
-1 c-14 0 -38 -12 -53 -27 -29 -28 -68 -41 -68 -22 0 5 5 7 10 4 13 -8 13 1 0
26 -13 24 -4 25 18 1 10 -9 14 -13 10 -8 -5 6 -8 21 -8 34 0 16 -4 21 -12 16
-9 -6 -9 -3 0 9 8 9 11 21 7 27 -4 7 -1 10 6 9 8 -2 25 1 39 6 24 7 24 8 5 16
-14 5 -15 8 -4 8 8 1 31 -16 50 -36z m-255 -18 c-9 -14 -23 -25 -32 -25 -13 0
-12 -6 7 -36 18 -30 19 -38 8 -45 -18 -11 -26 -11 -34 1 -3 6 1 10 9 10 19 0
20 8 1 40 -19 33 -19 54 0 46 10 -3 18 1 22 12 3 9 11 23 17 31 18 23 20 -7 2
-34z m-832 8 c11 -13 16 -23 13 -23 -10 0 -37 31 -37 42 0 6 1 9 3 7 1 -2 11
-14 21 -26z m766 8 c0 -13 -21 -28 -50 -35 -24 -7 -24 -6 3 9 15 9 27 20 27
25 0 6 5 10 10 10 6 0 10 -4 10 -9z m-403 -31 c1 -23 1 -23 -4 -2 -4 20 -7 21
-21 10 -13 -11 -14 -11 -7 1 6 11 4 13 -8 8 -10 -3 -17 -2 -17 4 0 6 12 9 28
7 21 -2 27 -9 29 -28z m61 -6 c-4 -3 -12 5 -18 18 -12 22 -12 22 6 6 10 -10
15 -20 12 -24z m-908 16 c0 -5 -4 -10 -10 -10 -5 0 -10 5 -10 10 0 6 5 10 10
10 6 0 10 -4 10 -10z m880 -25 c0 -5 -5 -3 -10 5 -5 8 -10 20 -10 25 0 6 5 3
10 -5 5 -8 10 -19 10 -25z m840 25 c0 -5 -2 -10 -4 -10 -3 0 -8 5 -11 10 -3 6
-1 10 4 10 6 0 11 -4 11 -10z m-1183 -16 c-3 -3 -12 -4 -19 -1 -8 3 -5 6 6 6
11 1 17 -2 13 -5z m223 -8 c0 -2 -7 -7 -16 -10 -8 -3 -12 -2 -9 4 6 10 25 14
25 6z m-445 -16 c-3 -5 6 -21 21 -35 16 -15 24 -31 20 -40 -6 -17 9 -21 19 -5
11 19 23 10 17 -12 -5 -23 -5 -23 16 -4 17 15 22 16 22 5 0 -8 -6 -21 -12 -28
-11 -11 -5 -12 30 -7 41 6 43 5 28 -10 -22 -22 -14 -29 16 -14 23 12 23 12 -2
-12 -28 -28 -54 -26 -47 3 4 15 -1 19 -24 19 -16 0 -29 5 -29 10 0 6 -8 10
-19 10 -23 0 -88 26 -96 40 -6 9 30 90 41 90 3 0 2 -4 -1 -10z m1095 -39 l19
-39 -25 -17 c-14 -9 -41 -19 -60 -22 -18 -3 -31 -9 -28 -14 2 -5 -7 -11 -21
-15 -14 -3 -25 -12 -25 -20 0 -8 -7 -14 -16 -14 -14 0 -14 -2 0 -22 24 -34 19
-44 -9 -18 -13 12 -22 27 -19 32 3 5 0 16 -8 25 -11 14 -10 15 11 8 20 -6 23
-4 18 9 -5 12 0 16 17 16 20 0 23 4 18 28 l-5 27 23 -20 23 -20 -7 23 c-7 22
7 31 19 12 3 -5 11 -10 16 -10 6 0 7 5 3 11 -5 9 24 79 33 79 1 0 12 -18 23
-39z m-817 -26 c-1 -30 1 -54 5 -54 4 1 18 0 32 -1 24 -2 24 -3 -5 -10 -30 -8
-30 -8 8 -9 21 0 54 6 74 14 44 18 54 13 19 -10 -14 -9 -52 -19 -84 -22 -56
-5 -59 -4 -65 18 -10 37 -8 75 5 104 6 14 12 25 12 25 1 0 1 -25 -1 -55z m545
-43 l-3 -47 -40 -3 c-48 -4 -108 12 -126 35 -13 15 -12 15 10 4 27 -15 93 -22
85 -10 -5 8 27 14 50 10 5 -1 6 24 4 55 -5 53 -4 55 9 30 8 -15 13 -47 11 -74z
m-1011 46 c-3 -7 -5 -2 -5 12 0 14 2 19 5 13 2 -7 2 -19 0 -25z m1460 -10 c-3
-7 -5 -2 -5 12 0 14 2 19 5 13 2 -7 2 -19 0 -25z m-1536 -7 c-44 -41 -44 -100
-1 -143 17 -17 29 -32 27 -34 -8 -8 -57 49 -63 72 -3 13 -10 21 -15 18 -5 -3
-6 -10 -3 -16 5 -7 2 -8 -5 -4 -9 6 -8 13 5 27 9 10 14 19 10 19 -12 0 24 59
46 74 34 24 34 19 -1 -13z m1049 -7 c0 -17 -15 -25 -34 -18 -11 4 -12 9 -3 18
15 16 37 16 37 0z m163 5 c-14 -14 -74 -27 -93 -21 -8 3 5 11 30 17 61 17 77
18 63 4z m437 -66 c0 -41 -17 -79 -44 -96 -30 -19 -79 -20 -102 -2 -18 14 -17
14 8 5 88 -31 161 65 112 148 l-16 27 21 -25 c11 -14 21 -39 21 -57z m-1556
51 c3 -8 2 -12 -4 -9 -6 3 -10 10 -10 16 0 14 7 11 14 -7z m506 6 c13 -8 12
-10 -2 -10 -10 0 -21 0 -25 -1 -4 0 -9 4 -11 10 -5 14 18 14 38 1z m-550 -26
c0 -8 -19 -13 -24 -6 -3 5 1 9 9 9 8 0 15 -2 15 -3z m1460 2 c0 -2 -7 -7 -16
-10 -8 -3 -12 -2 -9 4 6 10 25 14 25 6z m-1273 -20 c-6 -16 19 -30 36 -19 7 4
8 0 4 -11 -5 -12 -3 -16 5 -14 14 5 55 -29 46 -37 -3 -3 -29 -9 -57 -14 l-51
-8 0 43 c0 42 7 74 17 74 3 0 3 -6 0 -14z m578 -4 c45 3 59 -4 29 -16 -39 -15
-104 1 -104 26 0 7 5 6 15 -2 8 -7 34 -11 60 -8z m579 -52 c-1 -8 -3 -22 -3
-31 -1 -15 -25 -16 -88 -3 -33 6 -28 31 8 39 20 5 29 11 25 21 -6 15 15 15 26
-1 4 -5 10 -1 14 10 7 18 8 18 14 -1 4 -10 6 -26 4 -34z m-507 18 c-3 -8 -6
-5 -6 6 -1 11 2 17 5 13 3 -3 4 -12 1 -19z m-397 -23 c10 -26 17 -32 26 -24
15 12 37 3 29 -12 -3 -5 1 -6 9 -3 9 3 16 2 16 -3 0 -9 -70 -47 -75 -41 -27
39 -35 58 -35 85 0 43 13 42 30 -2z m660 -4 c0 -22 -8 -48 -18 -61 -17 -21
-18 -21 -55 -4 -20 10 -37 22 -37 28 0 5 3 7 6 3 4 -3 14 1 22 10 11 10 17 12
20 4 7 -20 18 -12 32 24 18 46 30 44 30 -4z m428 15 c-7 -8 -15 -12 -17 -11
-5 6 10 25 20 25 5 0 4 -6 -3 -14z m-1156 -26 l-22 -21 0 21 c0 12 4 19 9 15
5 -3 13 0 16 6 4 5 10 8 13 5 3 -4 -4 -15 -16 -26z m572 -109 c-21 -31 -39
-57 -40 -59 -1 -2 -22 11 -48 28 -30 21 -46 39 -46 52 0 21 1 21 27 -3 15 -13
22 -17 15 -7 -9 11 -10 18 -2 23 5 3 10 2 10 -3 0 -5 7 -9 14 -9 12 0 13 5 4
21 -8 17 -8 19 2 9 10 -9 18 -8 37 4 19 13 26 14 32 4 9 -14 19 14 23 59 1 14
3 5 5 -19 4 -38 -1 -52 -33 -100z m-390 61 c4 -6 13 -9 22 -5 8 3 23 -2 34
-12 10 -9 29 -15 42 -13 16 2 22 -1 20 -12 -2 -12 1 -11 11 2 8 10 17 15 20
12 11 -12 -6 -35 -48 -64 l-42 -29 -38 50 c-29 38 -38 61 -41 97 -3 39 -2 42
5 16 4 -17 11 -36 15 -42z m143 18 c37 -5 37 -6 9 -12 -22 -4 -34 0 -53 18
-12 13 -23 29 -23 36 1 7 7 2 14 -12 10 -18 25 -26 53 -30z m68 10 c-5 -8 -11
-8 -17 -2 -6 6 -7 16 -3 22 5 8 11 8 17 2 6 -6 7 -16 3 -22z m105 1 c-13 -25
-41 -34 -71 -22 -22 9 -21 10 12 10 20 1 42 8 49 16 17 21 23 19 10 -4z m-809
-11 c-13 -11 -35 -20 -50 -19 -23 1 -22 2 9 11 19 5 39 14 45 19 5 5 11 9 15
9 3 -1 -6 -10 -19 -20z m324 -24 c-18 -13 -17 -14 10 -9 29 5 29 5 10 -11 -19
-16 -19 -16 8 -10 17 4 27 2 27 -6 0 -6 4 -9 8 -6 5 3 20 -1 35 -9 15 -8 27
-11 27 -8 0 3 7 0 15 -7 24 -20 1 -37 -58 -45 -29 -4 -62 -13 -73 -20 -21 -14
-22 -12 -28 56 -8 74 -4 89 22 89 13 0 13 -2 -3 -14z m765 -5 c7 -13 7 -28 0
-46 -5 -14 -10 -42 -10 -61 0 -34 -1 -34 -23 -20 -12 9 -45 18 -72 21 -28 3
-57 13 -65 22 -8 9 -9 13 -2 9 7 -4 15 -1 18 9 6 15 8 14 25 0 16 -16 17 -16
13 2 -6 21 46 49 74 39 13 -5 13 -3 -3 10 -19 16 -19 16 8 12 22 -4 25 -3 16
8 -8 10 -8 14 -1 14 6 0 16 -9 22 -19z m-1040 -1 c0 -5 -2 -10 -4 -10 -3 0 -8
5 -11 10 -3 6 -1 10 4 10 6 0 11 -4 11 -10z m130 6 c0 -3 -4 -8 -10 -11 -5 -3
-10 -1 -10 4 0 6 5 11 10 11 6 0 10 -2 10 -4z m1180 -6 c0 -5 -4 -10 -10 -10
-5 0 -10 5 -10 10 0 6 5 10 10 10 6 0 10 -4 10 -10z m-683 -7 c-3 -5 1 -14 8
-20 11 -10 15 -9 20 7 4 11 13 20 21 20 12 0 11 -6 -6 -31 -21 -29 -23 -29
-41 -13 -21 19 -25 44 -8 44 5 0 8 -3 6 -7z m814 -60 c13 -16 12 -17 -3 -4
-10 7 -18 15 -18 17 0 8 8 3 21 -13z m-1231 -33 c0 -5 -2 -10 -4 -10 -3 0 -8
5 -11 10 -3 6 -1 10 4 10 6 0 11 -4 11 -10z m-130 -20 c0 -5 -2 -10 -4 -10 -3
0 -8 5 -11 10 -3 6 -1 10 4 10 6 0 11 -4 11 -10z m617 -3 c0 -8 -6 -14 -14
-14 -9 0 -10 4 -2 14 6 7 12 13 14 13 1 0 2 -6 2 -13z m523 4 c0 -5 -8 -15
-17 -22 -16 -12 -17 -12 -6 2 7 9 10 19 6 22 -3 4 -1 7 5 7 7 0 12 -4 12 -9z
m-767 -56 l21 -30 -27 24 c-15 14 -27 34 -26 45 0 15 2 17 6 6 3 -8 15 -28 26
-45z m112 30 l13 30 2 -40 c1 -33 3 -36 10 -19 12 30 26 36 40 19 9 -11 16
-12 31 -2 17 10 22 9 33 -5 19 -26 29 -22 22 7 -8 31 1 33 14 3 l9 -23 0 23
c1 24 16 30 24 9 3 -7 -13 -32 -34 -55 -22 -22 -39 -38 -39 -34 -1 4 -11 -6
-23 -21 l-23 -28 -14 26 c-8 14 -20 23 -27 21 -7 -3 -13 0 -13 6 0 6 -14 23
-31 38 -27 22 -30 30 -23 50 8 25 9 25 12 -5 l4 -30 13 30z m91 9 c-1 -8 -6
-17 -12 -21 -5 -4 -6 -4 -2 1 4 5 3 14 -2 21 -7 8 -5 12 4 12 8 0 13 -6 12
-13z m166 -16 c-7 -7 -12 -8 -12 -2 0 14 12 26 19 19 2 -3 -1 -11 -7 -17z m27
-27 c-31 -42 -38 -30 -8 14 13 19 25 30 27 25 2 -5 -7 -23 -19 -39z m-369 29
c0 -5 -2 -10 -4 -10 -3 0 -8 5 -11 10 -3 6 -1 10 4 10 6 0 11 -4 11 -10z
m-155 -24 c12 -12 11 -14 -9 -12 -14 0 -22 6 -19 14 6 15 11 15 28 -2z m675
-1 c7 -8 9 -15 6 -15 -4 0 -14 7 -22 15 -9 8 -11 15 -6 15 5 0 15 -7 22 -15z
m-1130 -5 c0 -5 -5 -10 -11 -10 -5 0 -7 5 -4 10 3 6 8 10 11 10 2 0 4 -4 4
-10z m1560 0 c0 -5 -4 -10 -10 -10 -5 0 -10 5 -10 10 0 6 5 10 10 10 6 0 10
-4 10 -10z m-865 -162 c13 -13 37 -33 53 -45 29 -22 30 -22 47 -3 10 11 24 20
31 20 8 0 21 11 30 25 9 14 19 23 22 21 8 -8 -17 -34 -63 -65 l-42 -28 -46 33
c-49 36 -68 62 -66 91 1 14 3 13 6 -4 2 -12 15 -32 28 -45z m-315 -28 c0 -5
-4 -10 -10 -10 -5 0 -10 5 -10 10 0 6 5 10 10 10 6 0 10 -4 10 -10z m810 0 c0
-5 -4 -10 -10 -10 -5 0 -10 5 -10 10 0 6 5 10 10 10 6 0 10 -4 10 -10z m-398
-83 c16 15 18 15 13 1 -13 -34 -46 -30 -58 7 -6 17 -4 17 10 -3 15 -21 17 -22
35 -5z"/>
<path d="M1025 1820 c-16 -17 -16 -20 -3 -15 9 4 19 13 22 21 7 19 2 18 -19
-6z"/>
<path d="M1060 969 c0 -5 5 -7 10 -4 6 3 10 8 10 11 0 2 -4 4 -10 4 -5 0 -10
-5 -10 -11z"/>
<path d="M820 540 c0 -5 5 -10 11 -10 5 0 7 5 4 10 -3 6 -8 10 -11 10 -2 0 -4
-4 -4 -10z"/>
</g>
</svg>
